<svg xmlns="http://www.w3.org/2000/svg" xml:space="preserve" fill-rule="evenodd" stroke-linejoin="round" stroke-miterlimit="2" clip-rule="evenodd" viewBox="0 0 512 512"><path fill="none" d="M0 0h512v512H0z"/><clipPath id="a"><path d="M0 0h512v512H0z"/></clipPath><g clip-path="url(#a)"><path fill="none" d="M507 273c5 9 5 12 5 18v221H0V291c0-6 0-9 6-18 102-157 405-152 501 0Z"/><clipPath id="b"><path d="M507 273c5 9 5 12 5 18v221H0V291c0-6 0-9 6-18 102-157 405-152 501 0Z"/></clipPath><g clip-path="url(#b)"><path fill="none" d="M332 520H-51V405h200c0 14 11 25 25 25h18v21c0 14 11 25 25 25s25-11 25-25v-21h128v46h-21c-14 0-25 12-25 26 0 7 3 13 8 18Zm63-279v-87h197v226H421v-46h21c14 0 25-11 25-25s-11-25-25-25h-21v-18a25 25 0 0 0-26-25Zm197 189v90H459a25 25 0 0 0-17-44h-21v-46h171Z"/><clipPath id="c"><path d="M332 520H-51V405h200c0 14 11 25 25 25h18v21c0 14 11 25 25 25s25-11 25-25v-21h128v46h-21c-14 0-25 12-25 26 0 7 3 13 8 18Zm63-279v-87h197v226H421v-46h21c14 0 25-11 25-25s-11-25-25-25h-21v-18a25 25 0 0 0-26-25Zm197 189v90H459a25 25 0 0 0-17-44h-21v-46h171Z"/></clipPath><g clip-path="url(#c)"><path d="m-250 663 491 295-4 7-492-295 5-7Zm8-14 491 294-4 7-491-294 4-7Zm9-14 491 294-4 7-492-294 5-7Zm8-14 491 294-4 7-491-294 4-7Zm8-14 492 294-4 7-492-294 4-7Zm9-15 491 295-4 7-491-295 4-7Zm8-14 492 295-4 7-492-295 4-7Zm9-14 491 294-4 7-491-294 4-7Zm8-14 492 294-4 7-492-294 4-7Zm9-14 491 294-4 7-491-294 4-7Zm8-15 492 295-4 7-492-294 4-8Zm9-14 491 295-4 7-491-295 4-7Zm8-14 492 294-4 8-492-295 4-7Zm9-14 491 294-4 7-491-294 4-7Zm8-14 492 294-4 7-492-294 4-7Zm9-14 491 294-4 7-491-294 4-7Zm8-15 492 295-5 7-491-294 4-8Zm9-14 491 295-4 7-491-295 4-7Zm8-14 492 294-5 7-491-294 4-7Zm9-14 491 294-4 7-491-294 4-7Zm8-14 492 294-5 7-491-294 4-7Zm9-14 491 294-4 7-491-294 4-7Zm8-15 492 295-5 7-491-295 4-7Zm9-14 491 295-4 7-491-295 4-7Zm8-14 492 294-5 7-491-294 4-7Zm9-14 491 294-4 7-491-294 4-7Zm8-14 492 294-5 7-491-294 4-7Zm9-15 491 295-4 7-491-294 4-8Zm8-14 492 295-5 7-491-295 4-7Zm9-14 491 294-4 8L-8 259l4-7Zm8-14 492 294-5 7L0 245l4-7Zm9-14 491 294-4 7L8 231l5-7Zm8-14 491 294-4 7L17 217l4-7Zm9-14 491 294-4 7L25 203l5-7Zm8-15 491 295-4 7L34 189l4-8Zm9-14 491 295-4 7L42 174l5-7Zm8-14 491 294-4 8L51 160l4-7Zm9-14 491 294-4 7L59 146l5-7Zm8-14 491 294-4 7L68 132l4-7Zm9-14 491 294-4 7L76 118l5-7Zm8-15 491 295-4 7L85 104l4-8Zm9-14 491 295-4 7L93 89l5-7Zm8-14 491 294-4 7L102 75l4-7Zm9-14 491 294-4 7L110 61l5-7Zm8-14 491 294-4 7L119 47l4-7Zm9-14 491 294-4 7L127 33l5-7Zm8-15 491 295-4 7L136 18l4-7Zm8-14 492 295-4 7L144 4l4-7Zm9-14 491 294-4 7L153-10l4-7Zm8-14 492 294-4 7L161-24l4-7Zm9-14 491 294-4 7L170-38l4-7Zm8-15 492 295-4 7L178-52l4-8Zm9-14 491 295-4 7L187-67l4-7Zm8-14 492 294-4 8L195-81l4-7Zm9-14 491 294-4 7L204-95l4-7Zm8-14 492 294-4 7-492-294 4-7Zm9-14 491 294-4 7-491-294 4-7Zm8-15 492 295-4 7-492-294 4-8Zm9-14 491 295-4 7-491-295 4-7Zm8-14 492 294-5 8-491-295 4-7Zm9-14 491 294-4 7-491-294 4-7Zm8-14L759 93l-5 7-491-294 4-7Z"/><path d="m-149 493 492 294-4 8-492-295 4-7Zm26-42 491 294-4 7-491-294 4-7Zm-9 14 492 294-4 7-492-294 4-7Zm-8 14 491 294-4 7-491-294 4-7Zm-51 85 491 294-4 7-491-294 4-7Zm-9 14 492 295-4 7-492-295 4-7Zm-42 71 491 294-4 7-491-294 4-7Zm9-14 491 294-4 7-492-294 5-7Zm-17 28 491 295-4 7-492-295 5-7Zm76-127 491 294-4 7-491-294 4-7Zm-9 14 492 294-4 7-492-294 4-7Zm-25 42 491 295-4 7-491-295 4-7Zm93-156 492 295-5 7-491-294 4-8Zm9-14 491 295-4 7-491-295 4-7Zm-60 99 492 295-4 7-492-294 4-8Zm68-113 492 294-5 7-491-294 4-7Zm-127 213 491 294-4 7-491-294 4-7Zm8-14 492 294-4 7-492-294 4-7Zm60-100 491 295-4 7-491-295 4-7ZM89 96l491 295-4 7L85 104l4-8Zm51-85 491 295-4 7L136 18l4-7Zm-34 57 491 294-4 7L102 75l4-7Zm-34 57 491 294-4 7L68 132l4-7Zm-25 42 491 295-4 7L42 174l5-7ZM-72 366l491 294-4 7-491-294 4-7ZM30 196l491 294-4 7L25 203l5-7ZM4 238l492 294-5 7L0 245l4-7ZM157-17l491 294-4 7L153-10l4-7Zm-42 71 491 294-4 7L110 61l5-7ZM98 82l491 295-4 7L93 89l5-7ZM-13 266l492 295-5 7-491-295 4-7Zm-8 14 491 295-4 7-491-294 4-8Zm17-28 491 294-4 8L-8 259l4-7Zm-77 128 492 294-5 7-491-294 4-7ZM81 111l491 294-4 7L76 118l5-7ZM-64 351l492 295-5 7-491-295 4-7Zm9-14 491 295-4 7-491-295 4-7ZM165-31l492 294-4 7L161-24l4-7ZM-38 309l491 294-4 7-491-294 4-7Zm-9 14 492 294-5 7-491-294 4-7ZM64 139l491 294-4 7L59 146l5-7ZM174-45l491 294-4 7L170-38l4-7ZM21 210l491 294-4 7L17 217l4-7ZM132 26l491 294-4 7L127 33l5-7ZM-30 295l492 294-5 7-491-294 4-7Zm85-142 491 294-4 8L51 160l4-7ZM148-3l492 295-4 7L144 4l4-7ZM38 181l491 295-4 7L34 189l4-8Zm85-141 491 294-4 7L119 47l4-7ZM13 224l491 294-4 7L8 231l5-7ZM-89 394l491 294-4 7-491-294 4-7ZM182-60l492 295-4 7L178-52l4-8Zm34-56 492 294-4 7-492-294 4-7Zm26-43 491 295-4 7-491-295 4-7Zm-17 29 491 294-4 7-491-294 4-7Zm-34 56 491 295-4 7L187-67l4-7Zm17-28 491 294-4 7L204-95l4-7Zm51-85 491 294-4 7-491-294 4-7Zm-9 14 492 294-5 8-491-295 4-7Zm-17 28 492 295-4 7-492-294 4-8Zm-34 57 492 294-4 8L195-81l4-7Zm68-113L759 93l-5 7-491-294 4-7Z"/></g><path d="M149 405h-29V244l137 83V107h138v134c-14 0-25 12-25 25v18h-21c-14 0-25 11-25 25s11 25 25 25h21v46h-24l-89-53v53h-15v-21c0-14-11-25-25-25s-25 11-25 25v21h-18c-14 0-25 11-25 25Zm-29-161-138-84h138v84Z"/></g><path d="M507 273c5 9 5 12 5 18v221H0V291c0-6 0-9 6-18 102-157 405-152 501 0Zm-7 4c-46-74-144-111-241-112-98 0-197 36-247 112-4 7-4 9-4 14v213h496V291c0-5 0-7-4-14Z"/></g></svg>